# xmcd
#
# Track frame offsets: 
#        150
#        24396
#        42896
#        65730
#        84120
#        101645
#        117712
#
# Disc length: 1868 seconds
#
# Revision: 0
# Processed by: cddbd v1.5.1PL0 Copyright (c) Steve Scherf et al.
# Submitted via: ExactAudioCopy v0.95a5
#
DISCID=56074a07
DTITLE=Kamary Phillips - Every Little Thing Disc2
DYEAR=1900
DGENRE=Soul
TTITLE0=never fall
TTITLE1=leave your troubles behind
TTITLE2=natural light
TTITLE3=change
TTITLE4=fell like somebody
TTITLE5=lovefield
TTITLE6=leap of faith
EXTD=
EXTT0=
EXTT1=
EXTT2=
EXTT3=
EXTT4=
EXTT5=
EXTT6=
PLAYORDER=
